<mxfile host="app.diagrams.net" agent="Mozilla/5.0 (Macintosh; Intel Mac OS X 10_15_7) AppleWebKit/537.36 (KHTML, like Gecko) Chrome/134.0.0.0 Safari/537.36" version="26.1.0">
  <diagram name="订单交互流程" id="X3QQzonAfKuEHhE_Va-f">
    <mxGraphModel dx="1038" dy="590" grid="1" gridSize="16" guides="1" tooltips="1" connect="1" arrows="1" fold="1" page="1" pageScale="1" pageWidth="827" pageHeight="1169" math="0" shadow="0">
      <root>
        <mxCell id="0" />
        <mxCell id="1" parent="0" />
        <mxCell id="J_SCniiIOk3CN0rLdy25-130" value="用户" style="swimlane;fontStyle=1;align=center;" vertex="1" parent="1">
          <mxGeometry y="40" width="160" height="3912" as="geometry" />
        </mxCell>
        <mxCell id="J_SCniiIOk3CN0rLdy25-131" value="用户下单" style="rounded=1;whiteSpace=wrap;strokeWidth=2;" vertex="1" parent="J_SCniiIOk3CN0rLdy25-130">
          <mxGeometry x="20" y="100" width="120" height="60" as="geometry" />
        </mxCell>
        <mxCell id="J_SCniiIOk3CN0rLdy25-132" value="用户支付" style="rounded=1;whiteSpace=wrap;strokeWidth=2;" vertex="1" parent="J_SCniiIOk3CN0rLdy25-130">
          <mxGeometry x="20" y="312" width="120" height="60" as="geometry" />
        </mxCell>
        <mxCell id="J_SCniiIOk3CN0rLdy25-133" value="用户发起改签" style="rounded=1;whiteSpace=wrap;strokeWidth=2;" vertex="1" parent="J_SCniiIOk3CN0rLdy25-130">
          <mxGeometry x="16" y="1560" width="120" height="60" as="geometry" />
        </mxCell>
        <mxCell id="J_SCniiIOk3CN0rLdy25-178" value="用户支付" style="rounded=1;whiteSpace=wrap;html=1;" vertex="1" parent="J_SCniiIOk3CN0rLdy25-130">
          <mxGeometry x="16" y="1834" width="120" height="56" as="geometry" />
        </mxCell>
        <mxCell id="J_SCniiIOk3CN0rLdy25-134" value="供应商H5" style="swimlane;fontStyle=1;align=center;" vertex="1" parent="1">
          <mxGeometry x="160" y="40" width="160" height="3912" as="geometry" />
        </mxCell>
        <mxCell id="J_SCniiIOk3CN0rLdy25-136" value="跳转收银台" style="rounded=1;whiteSpace=wrap;" vertex="1" parent="J_SCniiIOk3CN0rLdy25-134">
          <mxGeometry x="20" y="200" width="120" height="60" as="geometry" />
        </mxCell>
        <mxCell id="J_SCniiIOk3CN0rLdy25-142" value="调用改签退款接口" style="rounded=1;whiteSpace=wrap;" vertex="1" parent="J_SCniiIOk3CN0rLdy25-134">
          <mxGeometry x="20" y="1432" width="120" height="60" as="geometry" />
        </mxCell>
        <mxCell id="J_SCniiIOk3CN0rLdy25-143" value="调用改签支付接口" style="rounded=1;whiteSpace=wrap;strokeColor=#FF0000;" vertex="1" parent="J_SCniiIOk3CN0rLdy25-134">
          <mxGeometry x="16" y="1654" width="140" height="60" as="geometry" />
        </mxCell>
        <mxCell id="J_SCniiIOk3CN0rLdy25-135" value="调用微能下单接口" style="rounded=1;whiteSpace=wrap;" vertex="1" parent="J_SCniiIOk3CN0rLdy25-134">
          <mxGeometry x="20" y="100" width="120" height="60" as="geometry" />
        </mxCell>
        <mxCell id="J_SCniiIOk3CN0rLdy25-167" style="edgeStyle=orthogonalEdgeStyle;rounded=0;orthogonalLoop=1;jettySize=auto;html=1;entryX=0.5;entryY=1;entryDx=0;entryDy=0;" edge="1" parent="J_SCniiIOk3CN0rLdy25-134" source="J_SCniiIOk3CN0rLdy25-141" target="J_SCniiIOk3CN0rLdy25-142">
          <mxGeometry relative="1" as="geometry" />
        </mxCell>
        <mxCell id="J_SCniiIOk3CN0rLdy25-141" value="改签金额&gt;原金额?" style="rhombus;whiteSpace=wrap;" vertex="1" parent="J_SCniiIOk3CN0rLdy25-134">
          <mxGeometry x="20" y="1550" width="120" height="80" as="geometry" />
        </mxCell>
        <mxCell id="J_SCniiIOk3CN0rLdy25-165" style="edgeStyle=orthogonalEdgeStyle;rounded=0;orthogonalLoop=1;jettySize=auto;html=1;entryX=0.434;entryY=0.019;entryDx=0;entryDy=0;entryPerimeter=0;" edge="1" parent="J_SCniiIOk3CN0rLdy25-134" source="J_SCniiIOk3CN0rLdy25-141" target="J_SCniiIOk3CN0rLdy25-143">
          <mxGeometry relative="1" as="geometry" />
        </mxCell>
        <mxCell id="J_SCniiIOk3CN0rLdy25-166" value="否" style="edgeLabel;html=1;align=center;verticalAlign=middle;resizable=0;points=[];" vertex="1" connectable="0" parent="J_SCniiIOk3CN0rLdy25-165">
          <mxGeometry x="-0.3306" y="-3" relative="1" as="geometry">
            <mxPoint as="offset" />
          </mxGeometry>
        </mxCell>
        <mxCell id="J_SCniiIOk3CN0rLdy25-173" value="跳转收银台" style="rounded=1;whiteSpace=wrap;html=1;" vertex="1" parent="J_SCniiIOk3CN0rLdy25-134">
          <mxGeometry x="16" y="1832" width="120" height="60" as="geometry" />
        </mxCell>
        <mxCell id="J_SCniiIOk3CN0rLdy25-137" value="执行出票操作" style="rounded=1;whiteSpace=wrap;" vertex="1" parent="J_SCniiIOk3CN0rLdy25-134">
          <mxGeometry y="728" width="120" height="60" as="geometry" />
        </mxCell>
        <mxCell id="J_SCniiIOk3CN0rLdy25-138" value="出票成功？" style="rhombus;whiteSpace=wrap;" vertex="1" parent="J_SCniiIOk3CN0rLdy25-134">
          <mxGeometry x="20" y="830" width="80" height="80" as="geometry" />
        </mxCell>
        <mxCell id="J_SCniiIOk3CN0rLdy25-160" style="edgeStyle=orthogonalEdgeStyle;rounded=0;exitX=0.5;exitY=1;entryX=0.5;entryY=0;" edge="1" parent="J_SCniiIOk3CN0rLdy25-134" source="J_SCniiIOk3CN0rLdy25-137" target="J_SCniiIOk3CN0rLdy25-138">
          <mxGeometry relative="1" as="geometry" />
        </mxCell>
        <mxCell id="J_SCniiIOk3CN0rLdy25-207" value="" style="edgeStyle=orthogonalEdgeStyle;rounded=0;orthogonalLoop=1;jettySize=auto;html=1;" edge="1" parent="J_SCniiIOk3CN0rLdy25-134" source="J_SCniiIOk3CN0rLdy25-205" target="J_SCniiIOk3CN0rLdy25-206">
          <mxGeometry relative="1" as="geometry" />
        </mxCell>
        <mxCell id="J_SCniiIOk3CN0rLdy25-205" value="执行出票操作" style="rounded=1;whiteSpace=wrap;html=1;" vertex="1" parent="J_SCniiIOk3CN0rLdy25-134">
          <mxGeometry x="20" y="1992" width="120" height="60" as="geometry" />
        </mxCell>
        <mxCell id="J_SCniiIOk3CN0rLdy25-206" value="出票成功？" style="rhombus;whiteSpace=wrap;html=1;rounded=1;" vertex="1" parent="J_SCniiIOk3CN0rLdy25-134">
          <mxGeometry x="40" y="2122" width="80" height="80" as="geometry" />
        </mxCell>
        <mxCell id="J_SCniiIOk3CN0rLdy25-247" value="" style="edgeStyle=orthogonalEdgeStyle;rounded=0;orthogonalLoop=1;jettySize=auto;html=1;" edge="1" parent="J_SCniiIOk3CN0rLdy25-134" source="J_SCniiIOk3CN0rLdy25-244" target="J_SCniiIOk3CN0rLdy25-246">
          <mxGeometry relative="1" as="geometry" />
        </mxCell>
        <mxCell id="J_SCniiIOk3CN0rLdy25-244" value="用户退款" style="whiteSpace=wrap;html=1;rounded=1;" vertex="1" parent="J_SCniiIOk3CN0rLdy25-134">
          <mxGeometry x="16" y="3184" width="120" height="60" as="geometry" />
        </mxCell>
        <mxCell id="J_SCniiIOk3CN0rLdy25-246" value="调用用户退款成功通知接口" style="whiteSpace=wrap;html=1;rounded=1;" vertex="1" parent="J_SCniiIOk3CN0rLdy25-134">
          <mxGeometry x="16" y="3324" width="120" height="60" as="geometry" />
        </mxCell>
        <mxCell id="J_SCniiIOk3CN0rLdy25-144" value="微能服务" style="swimlane;fontStyle=1;align=center;" vertex="1" parent="1">
          <mxGeometry x="320" y="40" width="180" height="3912" as="geometry" />
        </mxCell>
        <mxCell id="J_SCniiIOk3CN0rLdy25-145" value="生成支付链接" style="rounded=1;whiteSpace=wrap;" vertex="1" parent="J_SCniiIOk3CN0rLdy25-144">
          <mxGeometry x="34" y="100" width="120" height="60" as="geometry" />
        </mxCell>
        <mxCell id="J_SCniiIOk3CN0rLdy25-146" value="渠道扣款操作" style="shape=cylinder;fillColor=#FFF2CC;" vertex="1" parent="J_SCniiIOk3CN0rLdy25-144">
          <mxGeometry x="34" y="408" width="120" height="80" as="geometry" />
        </mxCell>
        <mxCell id="J_SCniiIOk3CN0rLdy25-147" value="订单状态：支付成功，出票中" style="shape=note;fillColor=#FFE6CC;" vertex="1" parent="J_SCniiIOk3CN0rLdy25-144">
          <mxGeometry x="24" y="545" width="140" height="60" as="geometry" />
        </mxCell>
        <mxCell id="J_SCniiIOk3CN0rLdy25-148" value="调用供应商支付成功通知" style="rounded=1;whiteSpace=wrap;" vertex="1" parent="J_SCniiIOk3CN0rLdy25-144">
          <mxGeometry x="34" y="648" width="120" height="60" as="geometry" />
        </mxCell>
        <mxCell id="J_SCniiIOk3CN0rLdy25-140" value="通知出票失败并退款" style="rounded=1;whiteSpace=wrap;strokeColor=#FF0000;" vertex="1" parent="J_SCniiIOk3CN0rLdy25-144">
          <mxGeometry x="20" y="968" width="140" height="60" as="geometry" />
        </mxCell>
        <mxCell id="J_SCniiIOk3CN0rLdy25-139" value="通知出票完成" style="rounded=1;whiteSpace=wrap;" vertex="1" parent="J_SCniiIOk3CN0rLdy25-144">
          <mxGeometry x="30" y="840" width="120" height="60" as="geometry" />
        </mxCell>
        <mxCell id="J_SCniiIOk3CN0rLdy25-171" value="生成支付链接（改签中）" style="rounded=1;whiteSpace=wrap;html=1;" vertex="1" parent="J_SCniiIOk3CN0rLdy25-144">
          <mxGeometry x="40" y="1654" width="120" height="60" as="geometry" />
        </mxCell>
        <mxCell id="J_SCniiIOk3CN0rLdy25-203" value="通知供应商改签订单支付成功" style="whiteSpace=wrap;html=1;fillColor=#DAE8FC;" vertex="1" parent="J_SCniiIOk3CN0rLdy25-144">
          <mxGeometry x="8" y="1992" width="120" height="60" as="geometry" />
        </mxCell>
        <mxCell id="J_SCniiIOk3CN0rLdy25-208" value="出票失败（改签失败）" style="whiteSpace=wrap;html=1;rounded=1;" vertex="1" parent="J_SCniiIOk3CN0rLdy25-144">
          <mxGeometry x="20" y="2132" width="120" height="60" as="geometry" />
        </mxCell>
        <mxCell id="J_SCniiIOk3CN0rLdy25-212" value="出票成功（改签成功）" style="whiteSpace=wrap;html=1;rounded=1;" vertex="1" parent="J_SCniiIOk3CN0rLdy25-144">
          <mxGeometry x="20" y="2312" width="120" height="60" as="geometry" />
        </mxCell>
        <mxCell id="J_SCniiIOk3CN0rLdy25-216" value="改签成功" style="whiteSpace=wrap;html=1;rounded=1;" vertex="1" parent="J_SCniiIOk3CN0rLdy25-144">
          <mxGeometry x="40" y="1432" width="120" height="60" as="geometry" />
        </mxCell>
        <mxCell id="J_SCniiIOk3CN0rLdy25-243" value="" style="edgeStyle=orthogonalEdgeStyle;rounded=0;orthogonalLoop=1;jettySize=auto;html=1;" edge="1" parent="J_SCniiIOk3CN0rLdy25-144" source="J_SCniiIOk3CN0rLdy25-240" target="J_SCniiIOk3CN0rLdy25-242">
          <mxGeometry relative="1" as="geometry" />
        </mxCell>
        <mxCell id="J_SCniiIOk3CN0rLdy25-240" value="生成退款单、退款" style="whiteSpace=wrap;html=1;rounded=1;" vertex="1" parent="J_SCniiIOk3CN0rLdy25-144">
          <mxGeometry x="20" y="3044" width="120" height="60" as="geometry" />
        </mxCell>
        <mxCell id="J_SCniiIOk3CN0rLdy25-242" value="调用渠道退款通知接口" style="whiteSpace=wrap;html=1;rounded=1;" vertex="1" parent="J_SCniiIOk3CN0rLdy25-144">
          <mxGeometry x="20" y="3184" width="120" height="60" as="geometry" />
        </mxCell>
        <mxCell id="J_SCniiIOk3CN0rLdy25-251" value="" style="edgeStyle=orthogonalEdgeStyle;rounded=0;orthogonalLoop=1;jettySize=auto;html=1;" edge="1" parent="J_SCniiIOk3CN0rLdy25-144" source="J_SCniiIOk3CN0rLdy25-248" target="J_SCniiIOk3CN0rLdy25-250">
          <mxGeometry relative="1" as="geometry" />
        </mxCell>
        <mxCell id="J_SCniiIOk3CN0rLdy25-248" value="渠道退款" style="whiteSpace=wrap;html=1;rounded=1;" vertex="1" parent="J_SCniiIOk3CN0rLdy25-144">
          <mxGeometry x="44" y="3324" width="120" height="60" as="geometry" />
        </mxCell>
        <mxCell id="J_SCniiIOk3CN0rLdy25-250" value="调用用户退款成功通知接口" style="whiteSpace=wrap;html=1;rounded=1;" vertex="1" parent="J_SCniiIOk3CN0rLdy25-144">
          <mxGeometry x="44" y="3464" width="120" height="60" as="geometry" />
        </mxCell>
        <mxCell id="J_SCniiIOk3CN0rLdy25-149" value="渠道服务" style="swimlane;fontStyle=1;align=center;" vertex="1" parent="1">
          <mxGeometry x="500" y="40" width="196" height="3912" as="geometry" />
        </mxCell>
        <mxCell id="J_SCniiIOk3CN0rLdy25-150" value="通知支付成功" style="shape=cloud;fillColor=#DAE8FC;" vertex="1" parent="J_SCniiIOk3CN0rLdy25-149">
          <mxGeometry x="44" y="344" width="120" height="60" as="geometry" />
        </mxCell>
        <mxCell id="J_SCniiIOk3CN0rLdy25-185" value="通知出票完成（订单状态）" style="rounded=1;whiteSpace=wrap;html=1;" vertex="1" parent="J_SCniiIOk3CN0rLdy25-149">
          <mxGeometry x="22" y="840" width="120" height="60" as="geometry" />
        </mxCell>
        <mxCell id="J_SCniiIOk3CN0rLdy25-187" value="通知出票失败（订单状态）" style="rounded=1;whiteSpace=wrap;html=1;" vertex="1" parent="J_SCniiIOk3CN0rLdy25-149">
          <mxGeometry x="28" y="968" width="120" height="60" as="geometry" />
        </mxCell>
        <mxCell id="J_SCniiIOk3CN0rLdy25-190" value="通知支付成功" style="shape=cloud;fillColor=#DAE8FC;" vertex="1" parent="J_SCniiIOk3CN0rLdy25-149">
          <mxGeometry x="28" y="1992" width="120" height="60" as="geometry" />
        </mxCell>
        <mxCell id="J_SCniiIOk3CN0rLdy25-210" value="出票失败（改签失败、退款）" style="whiteSpace=wrap;html=1;rounded=1;" vertex="1" parent="J_SCniiIOk3CN0rLdy25-149">
          <mxGeometry x="40" y="2132" width="120" height="60" as="geometry" />
        </mxCell>
        <mxCell id="J_SCniiIOk3CN0rLdy25-214" value="出票成功（改签成功）" style="whiteSpace=wrap;html=1;rounded=1;" vertex="1" parent="J_SCniiIOk3CN0rLdy25-149">
          <mxGeometry x="40" y="2312" width="120" height="60" as="geometry" />
        </mxCell>
        <mxCell id="J_SCniiIOk3CN0rLdy25-218" value="改签成功，退款" style="whiteSpace=wrap;html=1;rounded=1;" vertex="1" parent="J_SCniiIOk3CN0rLdy25-149">
          <mxGeometry x="44" y="1432" width="120" height="60" as="geometry" />
        </mxCell>
        <mxCell id="J_SCniiIOk3CN0rLdy25-239" value="" style="edgeStyle=orthogonalEdgeStyle;rounded=0;orthogonalLoop=1;jettySize=auto;html=1;" edge="1" parent="J_SCniiIOk3CN0rLdy25-149" source="J_SCniiIOk3CN0rLdy25-237" target="J_SCniiIOk3CN0rLdy25-238">
          <mxGeometry relative="1" as="geometry" />
        </mxCell>
        <mxCell id="J_SCniiIOk3CN0rLdy25-237" value="用户针对出票成功的订单发起退票" style="rounded=1;whiteSpace=wrap;html=1;" vertex="1" parent="J_SCniiIOk3CN0rLdy25-149">
          <mxGeometry x="22" y="2904" width="120" height="60" as="geometry" />
        </mxCell>
        <mxCell id="J_SCniiIOk3CN0rLdy25-238" value="调用&lt;span style=&quot;color: rgb(36, 91, 219); background-color: transparent;&quot;&gt;订单退款交互接口&lt;/span&gt;" style="whiteSpace=wrap;html=1;rounded=1;" vertex="1" parent="J_SCniiIOk3CN0rLdy25-149">
          <mxGeometry x="22" y="3044" width="120" height="60" as="geometry" />
        </mxCell>
        <mxCell id="J_SCniiIOk3CN0rLdy25-252" value="记录用户退款成功" style="whiteSpace=wrap;html=1;rounded=1;" vertex="1" parent="J_SCniiIOk3CN0rLdy25-149">
          <mxGeometry x="44" y="3464" width="120" height="60" as="geometry" />
        </mxCell>
        <mxCell id="J_SCniiIOk3CN0rLdy25-151" style="edgeStyle=orthogonalEdgeStyle;rounded=0;exitX=1;exitY=0.5;entryX=0;entryY=0.5;" edge="1" parent="1" source="J_SCniiIOk3CN0rLdy25-131" target="J_SCniiIOk3CN0rLdy25-135">
          <mxGeometry relative="1" as="geometry" />
        </mxCell>
        <mxCell id="J_SCniiIOk3CN0rLdy25-153" style="edgeStyle=orthogonalEdgeStyle;rounded=0;exitX=0.5;exitY=1;entryX=0.5;entryY=0;" edge="1" parent="1" source="J_SCniiIOk3CN0rLdy25-145" target="J_SCniiIOk3CN0rLdy25-136">
          <mxGeometry relative="1" as="geometry" />
        </mxCell>
        <mxCell id="J_SCniiIOk3CN0rLdy25-154" style="edgeStyle=orthogonalEdgeStyle;rounded=0;exitX=1;exitY=0.5;entryX=0;entryY=0.5;" edge="1" parent="1" source="J_SCniiIOk3CN0rLdy25-136" target="J_SCniiIOk3CN0rLdy25-132">
          <mxGeometry relative="1" as="geometry" />
        </mxCell>
        <mxCell id="J_SCniiIOk3CN0rLdy25-155" style="edgeStyle=orthogonalEdgeStyle;rounded=0;exitX=0.5;exitY=1;entryX=0.5;entryY=0;dashed=1;" edge="1" parent="1" source="J_SCniiIOk3CN0rLdy25-132" target="J_SCniiIOk3CN0rLdy25-150">
          <mxGeometry relative="1" as="geometry" />
        </mxCell>
        <mxCell id="J_SCniiIOk3CN0rLdy25-157" style="edgeStyle=orthogonalEdgeStyle;rounded=0;exitX=0.5;exitY=1;entryX=0.5;entryY=0;" edge="1" parent="1" source="J_SCniiIOk3CN0rLdy25-146" target="J_SCniiIOk3CN0rLdy25-147">
          <mxGeometry relative="1" as="geometry" />
        </mxCell>
        <mxCell id="J_SCniiIOk3CN0rLdy25-158" style="edgeStyle=orthogonalEdgeStyle;rounded=0;exitX=0.5;exitY=1;entryX=0.5;entryY=0;" edge="1" parent="1" source="J_SCniiIOk3CN0rLdy25-147" target="J_SCniiIOk3CN0rLdy25-148">
          <mxGeometry relative="1" as="geometry" />
        </mxCell>
        <mxCell id="J_SCniiIOk3CN0rLdy25-159" style="edgeStyle=orthogonalEdgeStyle;rounded=0;exitX=0.5;exitY=1;entryX=0.5;entryY=0;" edge="1" parent="1" source="J_SCniiIOk3CN0rLdy25-148" target="J_SCniiIOk3CN0rLdy25-137">
          <mxGeometry relative="1" as="geometry" />
        </mxCell>
        <mxCell id="J_SCniiIOk3CN0rLdy25-152" style="edgeStyle=orthogonalEdgeStyle;rounded=0;exitX=1;exitY=0.5;entryX=0;entryY=0.5;" edge="1" parent="1" source="J_SCniiIOk3CN0rLdy25-135" target="J_SCniiIOk3CN0rLdy25-145">
          <mxGeometry relative="1" as="geometry" />
        </mxCell>
        <mxCell id="J_SCniiIOk3CN0rLdy25-156" style="edgeStyle=orthogonalEdgeStyle;rounded=0;exitX=0.5;exitY=1;entryX=0.5;entryY=0;" edge="1" parent="1" source="J_SCniiIOk3CN0rLdy25-150" target="J_SCniiIOk3CN0rLdy25-146">
          <mxGeometry relative="1" as="geometry" />
        </mxCell>
        <mxCell id="J_SCniiIOk3CN0rLdy25-164" style="edgeStyle=orthogonalEdgeStyle;rounded=0;orthogonalLoop=1;jettySize=auto;html=1;entryX=0;entryY=0.5;entryDx=0;entryDy=0;" edge="1" parent="1" source="J_SCniiIOk3CN0rLdy25-133" target="J_SCniiIOk3CN0rLdy25-141">
          <mxGeometry relative="1" as="geometry" />
        </mxCell>
        <mxCell id="J_SCniiIOk3CN0rLdy25-172" style="edgeStyle=orthogonalEdgeStyle;rounded=0;orthogonalLoop=1;jettySize=auto;html=1;entryX=0;entryY=0.5;entryDx=0;entryDy=0;" edge="1" parent="1" source="J_SCniiIOk3CN0rLdy25-143" target="J_SCniiIOk3CN0rLdy25-171">
          <mxGeometry relative="1" as="geometry" />
        </mxCell>
        <mxCell id="J_SCniiIOk3CN0rLdy25-175" style="edgeStyle=orthogonalEdgeStyle;rounded=0;orthogonalLoop=1;jettySize=auto;html=1;entryX=1;entryY=0.5;entryDx=0;entryDy=0;" edge="1" parent="1" source="J_SCniiIOk3CN0rLdy25-171" target="J_SCniiIOk3CN0rLdy25-173">
          <mxGeometry relative="1" as="geometry">
            <Array as="points">
              <mxPoint x="416" y="1904" />
              <mxPoint x="300" y="1904" />
              <mxPoint x="300" y="1902" />
            </Array>
          </mxGeometry>
        </mxCell>
        <mxCell id="J_SCniiIOk3CN0rLdy25-180" style="edgeStyle=orthogonalEdgeStyle;rounded=0;orthogonalLoop=1;jettySize=auto;html=1;entryX=0;entryY=0.5;entryDx=0;entryDy=0;" edge="1" parent="1" source="J_SCniiIOk3CN0rLdy25-138" target="J_SCniiIOk3CN0rLdy25-139">
          <mxGeometry relative="1" as="geometry" />
        </mxCell>
        <mxCell id="J_SCniiIOk3CN0rLdy25-182" value="是" style="edgeLabel;html=1;align=center;verticalAlign=middle;resizable=0;points=[];" vertex="1" connectable="0" parent="J_SCniiIOk3CN0rLdy25-180">
          <mxGeometry x="-0.5328" y="3" relative="1" as="geometry">
            <mxPoint as="offset" />
          </mxGeometry>
        </mxCell>
        <mxCell id="J_SCniiIOk3CN0rLdy25-181" style="edgeStyle=orthogonalEdgeStyle;rounded=0;orthogonalLoop=1;jettySize=auto;html=1;entryX=0;entryY=0.75;entryDx=0;entryDy=0;" edge="1" parent="1" source="J_SCniiIOk3CN0rLdy25-138" target="J_SCniiIOk3CN0rLdy25-140">
          <mxGeometry relative="1" as="geometry">
            <Array as="points">
              <mxPoint x="220" y="1053" />
            </Array>
          </mxGeometry>
        </mxCell>
        <mxCell id="J_SCniiIOk3CN0rLdy25-183" value="否" style="edgeLabel;html=1;align=center;verticalAlign=middle;resizable=0;points=[];" vertex="1" connectable="0" parent="J_SCniiIOk3CN0rLdy25-181">
          <mxGeometry x="0.1318" y="4" relative="1" as="geometry">
            <mxPoint as="offset" />
          </mxGeometry>
        </mxCell>
        <mxCell id="J_SCniiIOk3CN0rLdy25-186" style="edgeStyle=orthogonalEdgeStyle;rounded=0;orthogonalLoop=1;jettySize=auto;html=1;entryX=0;entryY=0.5;entryDx=0;entryDy=0;" edge="1" parent="1" source="J_SCniiIOk3CN0rLdy25-139" target="J_SCniiIOk3CN0rLdy25-185">
          <mxGeometry relative="1" as="geometry" />
        </mxCell>
        <mxCell id="J_SCniiIOk3CN0rLdy25-188" style="edgeStyle=orthogonalEdgeStyle;rounded=0;orthogonalLoop=1;jettySize=auto;html=1;entryX=0;entryY=0.5;entryDx=0;entryDy=0;" edge="1" parent="1" source="J_SCniiIOk3CN0rLdy25-140" target="J_SCniiIOk3CN0rLdy25-187">
          <mxGeometry relative="1" as="geometry" />
        </mxCell>
        <mxCell id="J_SCniiIOk3CN0rLdy25-189" style="edgeStyle=orthogonalEdgeStyle;rounded=0;orthogonalLoop=1;jettySize=auto;html=1;" edge="1" parent="1" source="J_SCniiIOk3CN0rLdy25-173" target="J_SCniiIOk3CN0rLdy25-178">
          <mxGeometry relative="1" as="geometry" />
        </mxCell>
        <mxCell id="J_SCniiIOk3CN0rLdy25-200" style="edgeStyle=orthogonalEdgeStyle;rounded=0;exitX=0.25;exitY=1;entryX=0.464;entryY=0.117;dashed=1;exitDx=0;exitDy=0;entryDx=0;entryDy=0;entryPerimeter=0;" edge="1" parent="1" source="J_SCniiIOk3CN0rLdy25-178" target="J_SCniiIOk3CN0rLdy25-190">
          <mxGeometry relative="1" as="geometry">
            <mxPoint x="48.000000000000114" y="1951.998" as="sourcePoint" />
            <mxPoint x="564.4399999999999" y="2062.4500000000003" as="targetPoint" />
          </mxGeometry>
        </mxCell>
        <mxCell id="J_SCniiIOk3CN0rLdy25-204" value="" style="edgeStyle=orthogonalEdgeStyle;rounded=0;orthogonalLoop=1;jettySize=auto;html=1;" edge="1" parent="1" source="J_SCniiIOk3CN0rLdy25-190" target="J_SCniiIOk3CN0rLdy25-203">
          <mxGeometry relative="1" as="geometry" />
        </mxCell>
        <mxCell id="J_SCniiIOk3CN0rLdy25-209" value="" style="edgeStyle=orthogonalEdgeStyle;rounded=0;orthogonalLoop=1;jettySize=auto;html=1;" edge="1" parent="1" source="J_SCniiIOk3CN0rLdy25-206" target="J_SCniiIOk3CN0rLdy25-208">
          <mxGeometry relative="1" as="geometry" />
        </mxCell>
        <mxCell id="J_SCniiIOk3CN0rLdy25-211" value="" style="edgeStyle=orthogonalEdgeStyle;rounded=0;orthogonalLoop=1;jettySize=auto;html=1;" edge="1" parent="1" source="J_SCniiIOk3CN0rLdy25-208" target="J_SCniiIOk3CN0rLdy25-210">
          <mxGeometry relative="1" as="geometry" />
        </mxCell>
        <mxCell id="J_SCniiIOk3CN0rLdy25-213" value="" style="edgeStyle=orthogonalEdgeStyle;rounded=0;orthogonalLoop=1;jettySize=auto;html=1;" edge="1" parent="1" source="J_SCniiIOk3CN0rLdy25-206" target="J_SCniiIOk3CN0rLdy25-212">
          <mxGeometry relative="1" as="geometry">
            <Array as="points">
              <mxPoint x="240" y="2446" />
            </Array>
          </mxGeometry>
        </mxCell>
        <mxCell id="J_SCniiIOk3CN0rLdy25-215" value="" style="edgeStyle=orthogonalEdgeStyle;rounded=0;orthogonalLoop=1;jettySize=auto;html=1;" edge="1" parent="1" source="J_SCniiIOk3CN0rLdy25-212" target="J_SCniiIOk3CN0rLdy25-214">
          <mxGeometry relative="1" as="geometry" />
        </mxCell>
        <mxCell id="J_SCniiIOk3CN0rLdy25-217" value="" style="edgeStyle=orthogonalEdgeStyle;rounded=0;orthogonalLoop=1;jettySize=auto;html=1;" edge="1" parent="1" source="J_SCniiIOk3CN0rLdy25-142" target="J_SCniiIOk3CN0rLdy25-216">
          <mxGeometry relative="1" as="geometry" />
        </mxCell>
        <mxCell id="J_SCniiIOk3CN0rLdy25-219" value="" style="edgeStyle=orthogonalEdgeStyle;rounded=0;orthogonalLoop=1;jettySize=auto;html=1;" edge="1" parent="1" source="J_SCniiIOk3CN0rLdy25-216" target="J_SCniiIOk3CN0rLdy25-218">
          <mxGeometry relative="1" as="geometry" />
        </mxCell>
        <mxCell id="J_SCniiIOk3CN0rLdy25-241" value="" style="edgeStyle=orthogonalEdgeStyle;rounded=0;orthogonalLoop=1;jettySize=auto;html=1;" edge="1" parent="1" source="J_SCniiIOk3CN0rLdy25-238" target="J_SCniiIOk3CN0rLdy25-240">
          <mxGeometry relative="1" as="geometry" />
        </mxCell>
        <mxCell id="J_SCniiIOk3CN0rLdy25-245" value="" style="edgeStyle=orthogonalEdgeStyle;rounded=0;orthogonalLoop=1;jettySize=auto;html=1;" edge="1" parent="1" source="J_SCniiIOk3CN0rLdy25-242" target="J_SCniiIOk3CN0rLdy25-244">
          <mxGeometry relative="1" as="geometry" />
        </mxCell>
        <mxCell id="J_SCniiIOk3CN0rLdy25-249" value="" style="edgeStyle=orthogonalEdgeStyle;rounded=0;orthogonalLoop=1;jettySize=auto;html=1;" edge="1" parent="1" source="J_SCniiIOk3CN0rLdy25-246" target="J_SCniiIOk3CN0rLdy25-248">
          <mxGeometry relative="1" as="geometry" />
        </mxCell>
        <mxCell id="J_SCniiIOk3CN0rLdy25-253" value="" style="edgeStyle=orthogonalEdgeStyle;rounded=0;orthogonalLoop=1;jettySize=auto;html=1;" edge="1" parent="1" source="J_SCniiIOk3CN0rLdy25-250" target="J_SCniiIOk3CN0rLdy25-252">
          <mxGeometry relative="1" as="geometry" />
        </mxCell>
      </root>
    </mxGraphModel>
  </diagram>
</mxfile>
